<svg xmlns="http://www.w3.org/2000/svg" viewBox="0 0 367.1 246">
  <defs>
    <style>
      .a {
        fill: #3effb9;
      }
    </style>
  </defs>
  <g>
    <path class="a" d="M229.7,38.9s-3,15-2.5,23.2-.5,41.9-.5,41.9l-1.5,21.2-2.9,12.5-3,8.4s16.6,13.3,17.3,13.3,47.3-14.8,47.3-14.8l49.8-30.7,21.9-30.3s-41.3-2.3-41.1-3.4-31.1,4.4-31.1,4.4L274.9,92l-2.3-21.2L255.3,51.6l-15.6-9.7Z"/>
    <g>
      <path d="M353.6,73.7a50.3,50.3,0,0,1-18.8,3.5c-6.7.2-13.6-.4-20.9-.9s-14.7-.8-22.6.1A55.1,55.1,0,0,0,279.4,79l-.9.3v-.4a45.7,45.7,0,0,0-3.6-11.6A43.8,43.8,0,0,0,268.1,57a57.3,57.3,0,0,0-8.7-7.8c-5.9-4.5-11.9-7.8-16.9-11.6A38.2,38.2,0,0,1,231,25.3L220.3,5.6l-4.1,22.2c-2.8,14.9-3.6,30-3.7,44.8-.1,1.9,0,3.7,0,5.6l.3,5.5c.3,3.7.8,7.3,1.3,10.9s.9,7.3,1.3,10.9,1.1,7.2,1.7,10.8v.4a42,42,0,0,1,1.2,11.7,50,50,0,0,1-1.9,12,56.1,56.1,0,0,1-4.5,10.8C-65.7,380.2,13.4,9.1,175.2,29.1c-3.3,8.1-15.7,18.5-20.2,26.1-6,9.2.4,20.1,10.9,19.8,16.1-1,23.9-23,31.2-35.5s-2.1-20.6-8.4-29.2C140.8-28.6,48.9,52.1,25.5,94.9c-85.6,165.5,62.6,191.3,172.2,95.8,6.9-5.9,16.1-12.7,24.9-20.1,7.7-3,15.5-5.7,23.4-8.3s14.9-4.7,22.3-7.4,14.7-6.1,22-9.3c14.7-6.2,29.3-13.8,42-24.5a100.8,100.8,0,0,0,16.9-18.2,105.1,105.1,0,0,0,12.2-21.7l5.7-13.3ZM340.1,96.5a89.8,89.8,0,0,1-14.8,16.6c-11.1,10-24.6,17.5-38.8,23.9-7,3.1-14.5,5.6-21.8,8.4s-14.5,6.2-21.7,9.5l-7.5,3.7h-.3l.6-.5a68.2,68.2,0,0,0,8.1-7.9c8-8.2,9.2-19.9,14.1-29.7-6.8,5-14.4,8.6-21.8,12.6-5.4,2.9-12.3,6.5-17.2,11.1l1.2-2.4a55.6,55.6,0,0,0,4.5-12.6,67.4,67.4,0,0,0,1.7-13.5v.4c.4-3.7.8-7.4,1.1-11s.4-7.3.7-11,.6-7.2.8-10.8.2-7.2.1-10.8c-.1-8.4.1-16.7.7-24.9l3.5,2.6c6.1,4.3,12.1,7.6,17.1,11.2s8.9,7.4,11.2,12.2a28.6,28.6,0,0,1,2.6,7.8,50.5,50.5,0,0,1,.8,8.8l.3,13.6,10.8-7.6A37.7,37.7,0,0,1,293,89.9a113.1,113.1,0,0,1,20.3-.5c7,.2,14.4.7,22,.2a66.8,66.8,0,0,0,9.8-1.1A82.4,82.4,0,0,1,340.1,96.5Z"/>
      <path d="M235.8,158.2l-.3.4h-.3Z"/>
    </g>
  </g>
</svg>
